<svg preserveAspectRatio="xMidYMid meet" data-bbox="46.5 20 107 159.999" viewBox="46.5 20 107 159.999" height="200" width="200" xmlns="http://www.w3.org/2000/svg" data-type="color" role="presentation" aria-hidden="true" aria-label="">
    <g>
        <path d="M153.5 59.449c0-12.787-4.602-26.888-12.632-38.691a1.73 1.73 0 0 0-1.435-.758H60.564c-.574 0-1.112.282-1.435.758C51.102 32.557 46.5 46.658 46.5 59.449c0 27.521 21.063 50.236 47.977 52.997v51.701a1.784 1.784 0 0 0-.518-.076c-8.765.294-29.152 1.66-29.152 7.91 0 7.795 31.593 8.018 35.193 8.018s35.19-.222 35.19-8.018c0-6.413-21.808-7.682-29.667-7.929v-51.607c26.914-2.761 47.977-25.475 47.977-52.996zm-92.312 1.257H50.001c-.011-.419-.032-.835-.032-1.257 0-11.842 4.191-24.911 11.524-35.994h77.01c7.333 11.087 11.528 24.152 11.528 35.994 0 .421-.022.838-.032 1.257H61.188zm42.6 113.087c.957 0 1.735-.774 1.735-1.727v-4.549c17.007.534 25.48 3.263 26.23 4.291-.925 1.7-12.329 4.738-31.752 4.738-19.427 0-30.831-3.038-31.756-4.384.73-1.338 9.06-4.066 25.835-4.634a1.75 1.75 0 0 0 .399-.064v4.603c0 .953.778 1.727 1.735 1.727.957 0 1.735-.774 1.735-1.727v-59.388c.682.026 1.365.052 2.054.052s1.371-.026 2.054-.052v59.388a1.727 1.727 0 0 0 1.731 1.726z" fill="#CEA980" data-color="1"/>
    </g>
</svg>